<svg xmlns="http://www.w3.org/2000/svg" viewBox="0 0 240 240" role="img" aria-labelledby="title desc">
  <title id="title">Luna Recovery Puerto Rican rooster</title>
  <desc id="desc">A friendly tropical rooster recovery coach with Puerto Rican flag accents.</desc>
  <defs>
    <linearGradient id="roosterBody" x1="64" y1="70" x2="185" y2="202" gradientUnits="userSpaceOnUse">
      <stop offset="0" stop-color="#46c78d"/>
      <stop offset="0.52" stop-color="#0f8f6b"/>
      <stop offset="1" stop-color="#075c72"/>
    </linearGradient>
    <linearGradient id="roosterWing" x1="88" y1="108" x2="162" y2="180" gradientUnits="userSpaceOnUse">
      <stop offset="0" stop-color="#ffcf4d"/>
      <stop offset="1" stop-color="#ff7a3d"/>
    </linearGradient>
    <filter id="roosterShadow" x="-20%" y="-20%" width="140%" height="150%">
      <feDropShadow dx="0" dy="8" stdDeviation="7" flood-color="#09263a" flood-opacity="0.2"/>
    </filter>
  </defs>
  <circle cx="120" cy="123" r="104" fill="#eefcff"/>
  <path d="M30 68c21-26 48-40 80-43" fill="none" stroke="#1254ad" stroke-width="9" stroke-linecap="round"/>
  <path d="M35 83c22-20 47-30 75-30" fill="none" stroke="#ff4f3f" stroke-width="8" stroke-linecap="round"/>
  <g filter="url(#roosterShadow)">
    <path d="M79 109c-28-31-55-31-66-10 20 3 34 12 42 28-23-7-40-1-47 17 21-1 39 6 53 22-15 2-27 10-33 24 31 2 55-7 71-28Z" fill="#0b3551"/>
    <path d="M74 117c-20-20-38-19-49-7 17 5 29 15 34 29-14-2-25 2-32 11 20 3 35 11 45 24Z" fill="#ff7a3d"/>
    <path d="M65 142c3-43 35-75 77-74 40 1 70 32 69 72-1 48-40 78-84 72-40-5-65-33-62-70Z" fill="url(#roosterBody)"/>
    <path d="M98 149c20-3 48-18 63-42 14 28 5 62-22 75-25 12-49-2-41-33Z" fill="url(#roosterWing)"/>
    <path d="M139 70c-6-17 1-28 13-28 1-14 11-21 22-15 8 4 8 14 5 23 12-7 24-1 24 10 0 12-11 20-27 22Z" fill="#e53935"/>
    <path d="M166 79c17 0 31 9 38 24-16 4-31 1-44-9Z" fill="#ffcf4d"/>
    <circle cx="154" cy="87" r="23" fill="#ffffff"/>
    <circle cx="159" cy="89" r="11" fill="#f47c32"/>
    <circle cx="162" cy="90" r="5.5" fill="#13243a"/>
    <circle cx="165" cy="85" r="2.5" fill="#ffffff"/>
    <path d="M164 107c18 2 31 10 39 23-17 3-33 0-47-9Z" fill="#ffcf4d"/>
    <path d="M150 111c5 13 17 18 30 13-5 13-16 20-28 17-12-3-17-17-2-30Z" fill="#e53935"/>
    <path d="M110 188c-2 11-9 19-20 26M142 190c1 11-4 20-14 27" fill="none" stroke="#0b3551" stroke-width="8" stroke-linecap="round"/>
    <path d="M76 216h30M118 219h30" fill="none" stroke="#ff7a3d" stroke-width="7" stroke-linecap="round"/>
  </g>
  <path d="M42 35l34 10-24 25Z" fill="#1254ad"/>
  <path d="M56 44l4 7 8 1-6 5 1 8-7-4-7 4 1-8-6-5 8-1Z" fill="#ffffff"/>
  <path d="M185 188c10-5 17-13 21-23 4 12 11 20 22 23-16 3-30 3-43 0Z" fill="#39a852"/>
</svg>
